<svg width="400" height="300" viewBox="0 0 400 300" fill="none" xmlns="http://www.w3.org/2000/svg">
  <!-- Background -->
  <rect width="400" height="300" fill="#ffffff"/>
  
  <!-- Header - Full Width -->
  <rect width="400" height="50" fill="#1f2937"/>
  <rect x="20" y="15" width="100" height="20" rx="4" fill="#ffffff"/>
  <rect x="320" y="10" width="60" height="30" rx="15" fill="#3b82f6"/>
  
  <!-- Hero Image - Full Width -->
  <rect y="50" width="400" height="100" fill="url(#blogHero)"/>
  <rect x="20" y="110" width="250" height="12" rx="6" fill="white" opacity="0.95"/>
  <rect x="20" y="130" width="180" height="8" rx="4" fill="white" opacity="0.8"/>
  
  <!-- Content Area - Full Width with Columns -->
  <rect x="20" y="170" width="250" height="100" rx="8" fill="#f9fafb"/>
  
  <!-- Article Preview -->
  <rect x="30" y="180" width="230" height="6" rx="3" fill="#374151"/>
  <rect x="30" y="195" width="200" height="4" rx="2" fill="#6b7280"/>
  <rect x="30" y="205" width="180" height="4" rx="2" fill="#6b7280"/>
  <rect x="30" y="215" width="220" height="4" rx="2" fill="#6b7280"/>
  
  <!-- Meta Info -->
  <rect x="30" y="235" width="60" height="4" rx="2" fill="#9ca3af"/>
  <rect x="100" y="235" width="40" height="4" rx="2" fill="#9ca3af"/>
  
  <!-- Read More Button -->
  <rect x="30" y="250" width="80" height="20" rx="10" fill="#3b82f6"/>
  
  <!-- Sidebar -->
  <rect x="290" y="170" width="90" height="100" rx="8" fill="#f3f4f6"/>
  
  <!-- Popular Posts -->
  <rect x="300" y="180" width="70" height="4" rx="2" fill="#1f2937"/>
  <rect x="300" y="190" width="60" height="3" rx="1.5" fill="#6b7280"/>
  <rect x="300" y="200" width="65" height="3" rx="1.5" fill="#6b7280"/>
  <rect x="300" y="210" width="55" height="3" rx="1.5" fill="#6b7280"/>
  
  <!-- Tags -->
  <rect x="300" y="230" width="25" height="12" rx="6" fill="#ddd6fe"/>
  <rect x="330" y="230" width="30" height="12" rx="6" fill="#fef3c7"/>
  <rect x="300" y="250" width="35" height="12" rx="6" fill="#dcfce7"/>
  
  <!-- Gradients -->
  <defs>
    <linearGradient id="blogHero" x1="0%" y1="0%" x2="100%" y2="100%">
      <stop offset="0%" style="stop-color:#6366f1;stop-opacity:1" />
      <stop offset="50%" style="stop-color:#8b5cf6;stop-opacity:1" />
      <stop offset="100%" style="stop-color:#ec4899;stop-opacity:1" />
    </linearGradient>
  </defs>
</svg>