<svg width="400" height="300" viewBox="0 0 400 300" fill="none" xmlns="http://www.w3.org/2000/svg">
  <!-- Background -->
  <rect width="400" height="300" fill="#0f172a"/>
  
  <!-- Sidebar -->
  <rect width="80" height="300" fill="#1e293b"/>
  <rect x="15" y="20" width="50" height="8" rx="4" fill="#3b82f6"/>
  <rect x="15" y="40" width="40" height="6" rx="3" fill="#64748b"/>
  <rect x="15" y="55" width="35" height="6" rx="3" fill="#64748b"/>
  <rect x="15" y="70" width="45" height="6" rx="3" fill="#64748b"/>
  
  <!-- Main Content Area - Full Width -->
  <rect x="80" width="320" height="50" fill="#1e293b"/>
  <rect x="100" y="15" width="120" height="20" rx="4" fill="#f1f5f9"/>
  <rect x="280" y="10" width="30" height="30" rx="15" fill="#3b82f6"/>
  
  <!-- Stats Cards - Full Width Layout -->
  <rect x="100" y="70" width="65" height="40" rx="6" fill="#059669"/>
  <rect x="175" y="70" width="65" height="40" rx="6" fill="#dc2626"/>
  <rect x="250" y="70" width="65" height="40" rx="6" fill="#7c3aed"/>
  <rect x="325" y="70" width="60" height="40" rx="6" fill="#ea580c"/>
  
  <!-- Chart Area - Full Width -->
  <rect x="100" y="130" width="285" height="90" rx="8" fill="#334155"/>
  
  <!-- Line Chart -->
  <polyline points="110,180 130,160 150,170 170,140 190,150 210,130 230,145 250,125 270,135 290,115 310,120 330,100 350,110 370,95" 
            fill="none" stroke="#10b981" stroke-width="2"/>
  
  <!-- Data Points -->
  <circle cx="130" cy="160" r="3" fill="#10b981"/>
  <circle cx="170" cy="140" r="3" fill="#10b981"/>
  <circle cx="210" cy="130" r="3" fill="#10b981"/>
  <circle cx="250" cy="125" r="3" fill="#10b981"/>
  <circle cx="290" cy="115" r="3" fill="#10b981"/>
  <circle cx="330" cy="100" r="3" fill="#10b981"/>
  
  <!-- Bottom Widgets -->
  <rect x="100" y="240" width="90" height="40" rx="6" fill="#475569"/>
  <rect x="200" y="240" width="90" height="40" rx="6" fill="#475569"/>
  <rect x="300" y="240" width="85" height="40" rx="6" fill="#475569"/>
  
  <!-- Progress Bars -->
  <rect x="110" y="250" width="60" height="4" rx="2" fill="#64748b"/>
  <rect x="110" y="250" width="40" height="4" rx="2" fill="#3b82f6"/>
  
  <rect x="210" y="250" width="60" height="4" rx="2" fill="#64748b"/>
  <rect x="210" y="250" width="30" height="4" rx="2" fill="#10b981"/>
  
  <rect x="310" y="250" width="60" height="4" rx="2" fill="#64748b"/>
  <rect x="310" y="250" width="45" height="4" rx="2" fill="#f59e0b"/>
</svg>