<svg width="400" height="300" viewBox="0 0 400 300" fill="none" xmlns="http://www.w3.org/2000/svg">
  <!-- Background -->
  <rect width="400" height="300" fill="#0f0f23"/>
  
  <!-- Header - Full Width -->
  <rect width="400" height="60" fill="rgba(15,15,35,0.9)"/>
  <rect x="20" y="20" width="60" height="20" rx="4" fill="#00d9ff"/>
  <rect x="320" y="15" width="60" height="30" rx="15" fill="transparent" stroke="#00d9ff" stroke-width="2"/>
  
  <!-- Hero Section - Full Width -->
  <rect y="60" width="400" height="120" fill="url(#portfolioGradient)"/>
  
  <!-- Profile Image -->
  <circle cx="100" cy="120" r="30" fill="#1e1e3f" stroke="#00d9ff" stroke-width="3"/>
  <circle cx="100" cy="120" r="20" fill="url(#profileGradient)"/>
  
  <!-- Hero Text -->
  <rect x="150" y="100" width="180" height="12" rx="6" fill="white" opacity="0.95"/>
  <rect x="150" y="120" width="140" height="8" rx="4" fill="white" opacity="0.8"/>
  <rect x="150" y="135" width="100" height="25" rx="12" fill="#00d9ff"/>
  
  <!-- Portfolio Grid - Full Width -->
  <rect x="20" y="200" width="85" height="60" rx="8" fill="#1e1e3f"/>
  <rect x="115" y="200" width="85" height="60" rx="8" fill="#1e1e3f"/>
  <rect x="210" y="200" width="85" height="60" rx="8" fill="#1e1e3f"/>
  <rect x="305" y="200" width="75" height="60" rx="8" fill="#1e1e3f"/>
  
  <!-- Project Previews -->
  <rect x="25" y="205" width="75" height="35" rx="4" fill="url(#project1)"/>
  <rect x="120" y="205" width="75" height="35" rx="4" fill="url(#project2)"/>
  <rect x="215" y="205" width="75" height="35" rx="4" fill="url(#project3)"/>
  <rect x="310" y="205" width="65" height="35" rx="4" fill="url(#project4)"/>
  
  <!-- Project Titles -->
  <rect x="25" y="245" width="60" height="4" rx="2" fill="#00d9ff"/>
  <rect x="120" y="245" width="50" height="4" rx="2" fill="#00d9ff"/>
  <rect x="215" y="245" width="55" height="4" rx="2" fill="#00d9ff"/>
  <rect x="310" y="245" width="45" height="4" rx="2" fill="#00d9ff"/>
  
  <!-- Tech Stack Icons -->
  <circle cx="40" cy="280" r="8" fill="#61dafb"/>
  <circle cx="60" cy="280" r="8" fill="#f7df1e"/>
  <circle cx="80" cy="280" r="8" fill="#68217a"/>
  
  <!-- Gradients -->
  <defs>
    <linearGradient id="portfolioGradient" x1="0%" y1="0%" x2="100%" y2="100%">
      <stop offset="0%" style="stop-color:#1e1e3f;stop-opacity:1" />
      <stop offset="50%" style="stop-color:#2d1b69;stop-opacity:1" />
      <stop offset="100%" style="stop-color:#0f0f23;stop-opacity:1" />
    </linearGradient>
    
    <linearGradient id="profileGradient" x1="0%" y1="0%" x2="100%" y2="100%">
      <stop offset="0%" style="stop-color:#00d9ff;stop-opacity:1" />
      <stop offset="100%" style="stop-color:#7c3aed;stop-opacity:1" />
    </linearGradient>
    
    <linearGradient id="project1" x1="0%" y1="0%" x2="100%" y2="100%">
      <stop offset="0%" style="stop-color:#3b82f6;stop-opacity:1" />
      <stop offset="100%" style="stop-color:#1e40af;stop-opacity:1" />
    </linearGradient>
    
    <linearGradient id="project2" x1="0%" y1="0%" x2="100%" y2="100%">
      <stop offset="0%" style="stop-color:#10b981;stop-opacity:1" />
      <stop offset="100%" style="stop-color:#047857;stop-opacity:1" />
    </linearGradient>
    
    <linearGradient id="project3" x1="0%" y1="0%" x2="100%" y2="100%">
      <stop offset="0%" style="stop-color:#f59e0b;stop-opacity:1" />
      <stop offset="100%" style="stop-color:#d97706;stop-opacity:1" />
    </linearGradient>
    
    <linearGradient id="project4" x1="0%" y1="0%" x2="100%" y2="100%">
      <stop offset="0%" style="stop-color:#ef4444;stop-opacity:1" />
      <stop offset="100%" style="stop-color:#dc2626;stop-opacity:1" />
    </linearGradient>
  </defs>
</svg>