<svg width="400" height="300" viewBox="0 0 400 300" fill="none" xmlns="http://www.w3.org/2000/svg">
  <!-- Background -->
  <rect width="400" height="300" fill="#fafafa"/>
  
  <!-- Header - Full Width with Navigation -->
  <rect width="400" height="60" fill="#ffffff" stroke="#e5e7eb" stroke-width="1"/>
  <rect x="20" y="20" width="80" height="20" rx="4" fill="#4f46e5"/>
  <rect x="150" y="25" width="40" height="10" rx="2" fill="#6b7280"/>
  <rect x="200" y="25" width="50" height="10" rx="2" fill="#6b7280"/>
  <rect x="260" y="25" width="35" height="10" rx="2" fill="#6b7280"/>
  <rect x="320" y="15" width="60" height="30" rx="15" fill="#4f46e5"/>
  
  <!-- Hero Section - Full Width with Modern Design -->
  <rect y="60" width="400" height="100" fill="url(#saasHero)"/>
  <rect x="50" y="90" width="300" height="16" rx="8" fill="white" opacity="0.95"/>
  <rect x="80" y="115" width="240" height="10" rx="5" fill="white" opacity="0.8"/>
  <rect x="150" y="135" width="100" height="20" rx="10" fill="white" opacity="0.9"/>
  
  <!-- Features Section - Full Width Grid -->
  <rect x="20" y="180" width="115" height="80" rx="12" fill="#ffffff" stroke="#e5e7eb"/>
  <rect x="142.5" y="180" width="115" height="80" rx="12" fill="#ffffff" stroke="#e5e7eb"/>
  <rect x="265" y="180" width="115" height="80" rx="12" fill="#ffffff" stroke="#e5e7eb"/>
  
  <!-- Feature Icons -->
  <circle cx="77.5" cy="210" r="15" fill="#ddd6fe"/>
  <rect x="70" y="203" width="15" height="15" rx="3" fill="#4f46e5"/>
  
  <circle cx="200" cy="210" r="15" fill="#dcfce7"/>
  <rect x="193" y="203" width="15" height="15" rx="3" fill="#16a34a"/>
  
  <circle cx="322.5" cy="210" r="15" fill="#fed7d7"/>
  <rect x="315.5" y="203" width="15" height="15" rx="3" fill="#dc2626"/>
  
  <!-- Feature Titles -->
  <rect x="30" y="235" width="95" height="6" rx="3" fill="#374151"/>
  <rect x="152.5" y="235" width="95" height="6" rx="3" fill="#374151"/>
  <rect x="275" y="235" width="95" height="6" rx="3" fill="#374151"/>
  
  <!-- Feature Descriptions -->
  <rect x="30" y="245" width="80" height="4" rx="2" fill="#9ca3af"/>
  <rect x="152.5" y="245" width="75" height="4" rx="2" fill="#9ca3af"/>
  <rect x="275" y="245" width="85" height="4" rx="2" fill="#9ca3af"/>
  
  <!-- CTA Buttons -->
  <rect x="55" y="275" width="45" height="18" rx="9" fill="#4f46e5"/>
  <rect x="177.5" y="275" width="45" height="18" rx="9" fill="#16a34a"/>
  <rect x="300" y="275" width="45" height="18" rx="9" fill="#dc2626"/>
  
  <!-- Floating Elements -->
  <circle cx="350" cy="80" r="8" fill="#fbbf24" opacity="0.7"/>
  <circle cx="60" cy="75" r="6" fill="#06b6d4" opacity="0.7"/>
  <circle cx="320" cy="110" r="5" fill="#f472b6" opacity="0.7"/>
  
  <!-- Gradients -->
  <defs>
    <linearGradient id="saasHero" x1="0%" y1="0%" x2="100%" y2="100%">
      <stop offset="0%" style="stop-color:#4f46e5;stop-opacity:0.1" />
      <stop offset="50%" style="stop-color:#7c3aed;stop-opacity:0.05" />
      <stop offset="100%" style="stop-color:#06b6d4;stop-opacity:0.1" />
    </linearGradient>
  </defs>
</svg>