<svg width="60" height="60" viewBox="0 0 60 60" fill="none" xmlns="http://www.w3.org/2000/svg">
  <!-- Main Circle with Green Gradient -->
  <circle cx="30" cy="30" r="30" fill="url(#greenCreateGradient)"/>
  
  <!-- 3D Shadow Effect -->
  <circle cx="30" cy="32" r="28" fill="url(#greenShadowGradient)" opacity="0.4"/>
  
  <!-- Inner Highlight Circle -->
  <circle cx="30" cy="28" r="26" fill="url(#greenHighlightGradient)" opacity="0.6"/>
  
  <!-- Main Plus Sign with 3D Effect -->
  <!-- Vertical Bar Shadow -->
  <rect x="26.5" y="12.5" width="7" height="35" rx="3.5" fill="rgba(0,0,0,0.3)"/>
  <!-- Horizontal Bar Shadow -->
  <rect x="12.5" y="26.5" width="35" height="7" rx="3.5" fill="rgba(0,0,0,0.3)"/>
  
  <!-- Vertical Bar -->
  <rect x="25" y="10" width="10" height="40" rx="5" fill="white"/>
  <!-- Horizontal Bar -->
  <rect x="10" y="25" width="40" height="10" rx="5" fill="white"/>
  
  <!-- 3D Highlight on Plus -->
  <rect x="25" y="10" width="10" height="18" rx="5" fill="url(#greenPlusHighlight)" opacity="0.8"/>
  <rect x="10" y="25" width="18" height="10" rx="5" fill="url(#greenPlusHighlight)" opacity="0.8"/>
  
  <!-- Sparkle Effects -->
  <circle cx="18" cy="18" r="1.5" fill="white" opacity="0.8"/>
  <circle cx="42" cy="22" r="1" fill="white" opacity="0.6"/>
  <circle cx="38" cy="42" r="1.5" fill="white" opacity="0.9"/>
  <circle cx="22" cy="42" r="1" fill="white" opacity="0.7"/>
  
  <!-- Outer Ring Effect -->
  <circle cx="30" cy="30" r="29" stroke="rgba(255,255,255,0.4)" stroke-width="1" fill="none"/>
  
  <defs>
    <!-- Main Green Gradient -->
    <linearGradient id="greenCreateGradient" x1="0%" y1="0%" x2="100%" y2="100%">
      <stop offset="0%" style="stop-color:#22c55e;stop-opacity:1" />
      <stop offset="50%" style="stop-color:#16a34a;stop-opacity:1" />
      <stop offset="100%" style="stop-color:#15803d;stop-opacity:1" />
    </linearGradient>
    
    <!-- Green Shadow Gradient -->
    <linearGradient id="greenShadowGradient" x1="0%" y1="0%" x2="0%" y2="100%">
      <stop offset="0%" style="stop-color:#000000;stop-opacity:0.1" />
      <stop offset="100%" style="stop-color:#000000;stop-opacity:0.6" />
    </linearGradient>
    
    <!-- Green Highlight Gradient -->
    <linearGradient id="greenHighlightGradient" x1="0%" y1="0%" x2="0%" y2="100%">
      <stop offset="0%" style="stop-color:#ffffff;stop-opacity:0.9" />
      <stop offset="100%" style="stop-color:#ffffff;stop-opacity:0.1" />
    </linearGradient>
    
    <!-- Green Plus Highlight -->
    <linearGradient id="greenPlusHighlight" x1="0%" y1="0%" x2="0%" y2="100%">
      <stop offset="0%" style="stop-color:#ffffff;stop-opacity:1" />
      <stop offset="100%" style="stop-color:#ffffff;stop-opacity:0.3" />
    </linearGradient>
  </defs>
</svg>