<svg width="40" height="40" viewBox="0 0 40 40" fill="none" xmlns="http://www.w3.org/2000/svg">
  <circle cx="20" cy="20" r="20" fill="url(#shopGradient)"/>
  <path d="M12 10h3l1.68 8.39c.11.51.51.91 1.02.91h11.5c.51 0 .91-.4 1.02-.91L32 10H12z" fill="white"/>
  <circle cx="17" cy="32" r="2" fill="white"/>
  <circle cx="27" cy="32" r="2" fill="white"/>
  <path d="M10 6v2h2l3.6 7.59-1.35 2.45C14.04 18.54 14.25 19 14.7 19H30v-2H16.42c-.14 0-.25-.11-.25-.25l.03-.12L17.1 15h7.45c.75 0 1.41-.41 1.76-1.03L29.88 8H12.1l-.95-2H8v2h2z" fill="white" opacity="0.3"/>
  <defs>
    <linearGradient id="shopGradient" x1="0%" y1="0%" x2="100%" y2="100%">
      <stop offset="0%" style="stop-color:#10b981;stop-opacity:1" />
      <stop offset="100%" style="stop-color:#047857;stop-opacity:1" />
    </linearGradient>
  </defs>
</svg>