<svg width="400" height="300" viewBox="0 0 400 300" fill="none" xmlns="http://www.w3.org/2000/svg">
  <!-- Background -->
  <rect width="400" height="300" fill="#111827"/>
  
  <!-- Sidebar - Users List -->
  <rect width="120" height="300" fill="#1f2937"/>
  <rect x="15" y="15" width="90" height="25" rx="4" fill="#374151"/>
  <rect x="20" y="22" width="60" height="11" rx="2" fill="#9ca3af"/>
  
  <!-- User List Items -->
  <circle cx="35" cy="60" r="12" fill="#3b82f6"/>
  <rect x="55" y="55" width="40" height="6" rx="3" fill="#d1d5db"/>
  <rect x="55" y="65" width="30" height="4" rx="2" fill="#9ca3af"/>
  
  <circle cx="35" cy="90" r="12" fill="#10b981"/>
  <rect x="55" y="85" width="45" height="6" rx="3" fill="#d1d5db"/>
  <rect x="55" y="95" width="35" height="4" rx="2" fill="#9ca3af"/>
  
  <circle cx="35" cy="120" r="12" fill="#f59e0b"/>
  <rect x="55" y="115" width="38" height="6" rx="3" fill="#d1d5db"/>
  <rect x="55" y="125" width="28" height="4" rx="2" fill="#9ca3af"/>
  
  <!-- Main Chat Area - Full Width -->
  <rect x="120" width="280" height="300" fill="#0f172a"/>
  
  <!-- Chat Header -->
  <rect x="120" width="280" height="50" fill="#1e293b"/>
  <circle cx="145" cy="25" r="15" fill="#3b82f6"/>
  <rect x="170" y="18" width="80" height="8" rx="4" fill="#f1f5f9"/>
  <rect x="170" y="30" width="50" height="6" rx="3" fill="#94a3b8"/>
  
  <!-- Online Status -->
  <circle cx="355" cy="25" r="6" fill="#10b981"/>
  <rect x="325" y="22" width="25" height="6" rx="3" fill="#94a3b8"/>
  
  <!-- Chat Messages Area -->
  <rect x="130" y="60" width="260" height="180" fill="transparent"/>
  
  <!-- Incoming Messages -->
  <rect x="140" y="70" width="120" height="30" rx="15" fill="#374151"/>
  <rect x="150" y="80" width="80" height="4" rx="2" fill="#d1d5db"/>
  <rect x="150" y="87" width="60" height="4" rx="2" fill="#d1d5db"/>
  
  <rect x="140" y="110" width="140" height="40" rx="15" fill="#374151"/>
  <rect x="150" y="120" width="100" height="4" rx="2" fill="#d1d5db"/>
  <rect x="150" y="127" width="80" height="4" rx="2" fill="#d1d5db"/>
  <rect x="150" y="134" width="90" height="4" rx="2" fill="#d1d5db"/>
  
  <!-- Outgoing Messages -->
  <rect x="250" y="160" width="130" height="35" rx="15" fill="#3b82f6"/>
  <rect x="260" y="170" width="90" height="4" rx="2" fill="white"/>
  <rect x="260" y="177" width="70" height="4" rx="2" fill="white"/>
  <rect x="260" y="184" width="60" height="4" rx="2" fill="white"/>
  
  <rect x="280" y="205" width="100" height="25" rx="12" fill="#3b82f6"/>
  <rect x="290" y="213" width="60" height="4" rx="2" fill="white"/>
  <rect x="290" y="220" width="40" height="4" rx="2" fill="white"/>
  
  <!-- Message Input - Full Width -->
  <rect x="130" y="250" width="250" height="40" rx="20" fill="#1e293b" stroke="#374151" stroke-width="1"/>
  <rect x="145" y="265" width="150" height="6" rx="3" fill="#6b7280"/>
  <circle cx="355" cy="270" r="12" fill="#3b82f6"/>
  <polygon points="350,265 360,270 350,275" fill="white"/>
  
  <!-- Typing Indicator -->
  <rect x="140" y="220" width="40" height="20" rx="10" fill="#374151"/>
  <circle cx="150" cy="230" r="2" fill="#9ca3af"/>
  <circle cx="157" cy="230" r="2" fill="#9ca3af"/>
  <circle cx="164" cy="230" r="2" fill="#9ca3af"/>
  
  <!-- File/Emoji Icons -->
  <rect x="330" y="262" width="12" height="12" rx="2" fill="#6b7280"/>
  <circle cx="315" cy="268" r="6" fill="#f59e0b"/>
</svg>