<svg width="400" height="300" viewBox="0 0 400 300" fill="none" xmlns="http://www.w3.org/2000/svg">
  <!-- Background -->
  <rect width="400" height="300" fill="#f8fafc"/>
  
  <!-- Header -->
  <rect width="400" height="60" fill="#1e293b"/>
  <rect x="20" y="20" width="80" height="20" rx="4" fill="#3b82f6"/>
  <rect x="300" y="15" width="80" height="30" rx="15" fill="#10b981"/>
  
  <!-- Hero Section - Full Width -->
  <rect y="60" width="400" height="120" fill="url(#heroGradient)"/>
  <rect x="50" y="100" width="200" height="8" rx="4" fill="white" opacity="0.9"/>
  <rect x="50" y="115" width="150" height="6" rx="3" fill="white" opacity="0.7"/>
  <rect x="50" y="135" width="100" height="25" rx="12" fill="white" opacity="0.9"/>
  
  <!-- Product Grid - Full Width -->
  <rect x="20" y="200" width="85" height="80" rx="8" fill="#e2e8f0"/>
  <rect x="115" y="200" width="85" height="80" rx="8" fill="#e2e8f0"/>
  <rect x="210" y="200" width="85" height="80" rx="8" fill="#e2e8f0"/>
  <rect x="305" y="200" width="75" height="80" rx="8" fill="#e2e8f0"/>
  
  <!-- Product Items -->
  <circle cx="62" cy="230" r="15" fill="#3b82f6"/>
  <circle cx="157" cy="230" r="15" fill="#10b981"/>
  <circle cx="252" cy="230" r="15" fill="#f59e0b"/>
  <circle cx="342" cy="230" r="15" fill="#ef4444"/>
  
  <rect x="30" y="250" width="65" height="4" rx="2" fill="#94a3b8"/>
  <rect x="125" y="250" width="65" height="4" rx="2" fill="#94a3b8"/>
  <rect x="220" y="250" width="65" height="4" rx="2" fill="#94a3b8"/>
  <rect x="315" y="250" width="55" height="4" rx="2" fill="#94a3b8"/>
  
  <!-- Gradients -->
  <defs>
    <linearGradient id="heroGradient" x1="0%" y1="0%" x2="100%" y2="100%">
      <stop offset="0%" style="stop-color:#3b82f6;stop-opacity:1" />
      <stop offset="100%" style="stop-color:#8b5cf6;stop-opacity:1" />
    </linearGradient>
  </defs>
</svg>